<?xml version="1.0" encoding="UTF-8"?>
<svg id="Layer_1" data-name="Layer 1" xmlns="http://www.w3.org/2000/svg" viewBox="0 0 480 96">
  <rect x="12" y="12" width="72" height="72" style="fill: #e08244;"/>
  <rect x="96" y="12" width="96" height="72" style="fill: #fddf48;"/>
  <rect x="192" y="12" width="96" height="72" style="fill: #fddf48;"/>
  <rect x="288" y="12" width="96" height="72" style="fill: #fddf48;"/>
  <path d="M432,84h-36V12h84c-1.29,33.87,0,48,0,48,0,0-9.75-2.25-12,0-1.75,1.75,0,12,0,12h-36s-1.2,8.64,0,12Z" style="fill: #9ebf52;"/>
  <path d="M84,0v12h24V0h72v12h24V0h72v12h24V0h72v12h12V0h84v12h12v48h-12v12h-36v24h-48v-12h-12v12h-72v-12h-24v12h-72v-12h-24v12h-72v-12h-24v12H0V0h84ZM72,24c-.02-3.99.01-8.01,0-12H12v72h60c.01-3.99-.02-8.01,0-12,3.99-.02,8.01.01,12,0V24c-3.99-.01-8.01.02-12,0ZM168,24c-.03-3.99.02-8.01,0-12h-48v12h-12v12h12v12c11.99.03,24.01-.04,36,0,.03,3.99-.02,8.01,0,12,3.99.02,8.01-.03,12,0,.02,3.99.02,8.01,0,12-15.99.06-32.01.06-48,0-.03-3.99.02-8.01,0-12-3.99-.02-8.01.03-12,0-.03-3.99.02-8.01,0-12h-12v12c3.99.02,8.01-.03,12,0,.03,3.99-.02,8.01,0,12,3.99,0,8.01-.02,12,0,.03,3.99-.02,8.01,0,12h48c.01-3.99-.02-8.01,0-12,3.99-.02,8.01.01,12,0v-12c-3.99-.02-8.01.03-12,0-.02-3.99,0-8.01,0-12-3.99,0-8.01.02-12,0-.03-3.99.02-8.01,0-12h-24v-12c11.99.03,24.01-.04,36,0,.03,3.99-.02,8.01,0,12,3.99.02,8.01-.03,12,0,.03,3.99-.02,8.01,0,12,3.99.02,8.01-.03,12,0,.03,3.99-.02,8.01,0,12,3.99.02,8.01-.03,12,0,.03,3.99-.02,8.01,0,12,3.99,0,8.01-.02,12,0,.03,3.99-.02,8.01,0,12h48c.01-3.99-.02-8.01,0-12,3.99-.02,8.01.01,12,0v-12c-3.99-.02-8.01.03-12,0-.02-3.99,0-8.01,0-12-3.99,0-8.01.02-12,0-.03-3.99.02-8.01,0-12h-24v-12c11.99.03,24.01-.04,36,0,.03,3.99-.02,8.01,0,12,3.99.02,8.01-.03,12,0,.03,3.99-.02,8.01,0,12,3.99.02,8.01-.03,12,0,.03,3.99-.02,8.01,0,12,3.99.02,8.01-.03,12,0,.03,3.99-.02,8.01,0,12,3.99,0,8.01-.02,12,0,.03,3.99-.02,8.01,0,12h48c.01-3.99-.02-8.01,0-12,3.99-.02,8.01.01,12,0v-12c-3.99-.02-8.01.03-12,0-.02-3.99,0-8.01,0-12-3.99,0-8.01.02-12,0-.03-3.99.02-8.01,0-12h-24v-12c11.99.03,24.01-.04,36,0,.03,3.99-.02,8.01,0,12,3.99.02,8.01-.03,12,0,.03,3.99-.02,8.01,0,12h12v-12c-3.99-.02-8.01.03-12,0-.03-3.99.02-8.01,0-12-3.99,0-8.01.02-12,0-.03-3.99.02-8.01,0-12h-48v12h-12v12h12v12c11.99.03,24.01-.04,36,0,.03,3.99-.02,8.01,0,12,3.99.02,8.01-.03,12,0,.02,3.99.02,8.01,0,12-15.99.06-32.01.06-48,0-.03-3.99.02-8.01,0-12-3.99-.02-8.01.03-12,0-.03-3.99.02-8.01,0-12-3.99-.02-8.01.03-12,0-.03-3.99.02-8.01,0-12-3.99-.02-8.01.03-12,0-.03-3.99.02-8.01,0-12-3.99,0-8.01.02-12,0-.03-3.99.02-8.01,0-12h-48v12h-12v12h12v12c11.99.03,24.01-.04,36,0,.03,3.99-.02,8.01,0,12,3.99.02,8.01-.03,12,0,.02,3.99.02,8.01,0,12-15.99.06-32.01.06-48,0-.03-3.99.02-8.01,0-12-3.99-.02-8.01.03-12,0-.03-3.99.02-8.01,0-12-3.99-.02-8.01.03-12,0-.03-3.99.02-8.01,0-12-3.99-.02-8.01.03-12,0-.03-3.99.02-8.01,0-12-3.99,0-8.01.02-12,0ZM456,24c-.02-3.99.01-8.01,0-12h-60v72h24v-24h36c.01-3.99-.02-8.01,0-12,3.99-.02,8.01.01,12,0v-24c-3.99-.01-8.01.02-12,0Z"/>
  <path d="M456,24c.03,7.99.03,16.01,0,24-11.99.05-24.01-.03-36,0v-24c11.99.03,24.01-.05,36,0Z"/>
  <path d="M72,24c.06,15.99.06,32.01,0,48-11.99.05-24.01-.03-36,0V24c11.99.03,24.01-.05,36,0Z"/>
</svg>